<mxfile host="www.draw.io" modified="2020-02-17T09:35:35.924Z" agent="Mozilla/5.0 (X11; Fedora; Linux x86_64; rv:73.0) Gecko/20100101 Firefox/73.0" etag="jLDZv1KgoRCMyF05211a" version="12.7.0" type="github">
  <diagram name="Page-1" id="c7558073-3199-34d8-9f00-42111426c3f3">
    <mxGraphModel dx="1422" dy="771" grid="1" gridSize="10" guides="1" tooltips="1" connect="1" arrows="1" fold="1" page="1" pageScale="1" pageWidth="1169" pageHeight="1654" background="#ffffff" math="0" shadow="0">
      <root>
        <mxCell id="0"/>
        <mxCell id="1" parent="0"/>
        <mxCell id="zN3hGCMv5IBJOMWqZXBS-107" style="edgeStyle=orthogonalEdgeStyle;rounded=0;orthogonalLoop=1;jettySize=auto;html=1;" edge="1" parent="1" source="zN3hGCMv5IBJOMWqZXBS-96">
          <mxGeometry relative="1" as="geometry">
            <mxPoint x="675" y="140" as="targetPoint"/>
            <Array as="points">
              <mxPoint x="675" y="100"/>
            </Array>
          </mxGeometry>
        </mxCell>
        <mxCell id="zN3hGCMv5IBJOMWqZXBS-119" style="edgeStyle=orthogonalEdgeStyle;curved=1;orthogonalLoop=1;jettySize=auto;html=1;entryX=0.5;entryY=0;entryDx=0;entryDy=0;" edge="1" parent="1" source="zN3hGCMv5IBJOMWqZXBS-96" target="zN3hGCMv5IBJOMWqZXBS-118">
          <mxGeometry relative="1" as="geometry"/>
        </mxCell>
        <mxCell id="zN3hGCMv5IBJOMWqZXBS-96" value="&lt;div&gt;!issolved() &amp;amp;&amp;amp; !&lt;/div&gt;&lt;div&gt;ismaxguess()&lt;/div&gt;" style="rhombus;whiteSpace=wrap;html=1;" vertex="1" parent="1">
          <mxGeometry x="850" y="40" width="160" height="70" as="geometry"/>
        </mxCell>
        <mxCell id="zN3hGCMv5IBJOMWqZXBS-108" style="edgeStyle=orthogonalEdgeStyle;rounded=0;orthogonalLoop=1;jettySize=auto;html=1;" edge="1" parent="1" source="zN3hGCMv5IBJOMWqZXBS-97" target="zN3hGCMv5IBJOMWqZXBS-101">
          <mxGeometry relative="1" as="geometry"/>
        </mxCell>
        <mxCell id="zN3hGCMv5IBJOMWqZXBS-97" value="&lt;div&gt;guess &amp;lt;-- readguess()&lt;/div&gt;" style="rounded=1;whiteSpace=wrap;html=1;" vertex="1" parent="1">
          <mxGeometry x="595" y="150" width="150" height="60" as="geometry"/>
        </mxCell>
        <mxCell id="zN3hGCMv5IBJOMWqZXBS-105" style="edgeStyle=orthogonalEdgeStyle;rounded=0;orthogonalLoop=1;jettySize=auto;html=1;entryX=0;entryY=0.5;entryDx=0;entryDy=0;" edge="1" parent="1" source="zN3hGCMv5IBJOMWqZXBS-101" target="zN3hGCMv5IBJOMWqZXBS-97">
          <mxGeometry relative="1" as="geometry">
            <Array as="points">
              <mxPoint x="570" y="270"/>
              <mxPoint x="570" y="180"/>
            </Array>
          </mxGeometry>
        </mxCell>
        <mxCell id="zN3hGCMv5IBJOMWqZXBS-109" style="edgeStyle=orthogonalEdgeStyle;rounded=0;orthogonalLoop=1;jettySize=auto;html=1;" edge="1" parent="1" source="zN3hGCMv5IBJOMWqZXBS-101" target="zN3hGCMv5IBJOMWqZXBS-102">
          <mxGeometry relative="1" as="geometry"/>
        </mxCell>
        <mxCell id="zN3hGCMv5IBJOMWqZXBS-101" value="isvalidguess(guess)" style="rhombus;whiteSpace=wrap;html=1;" vertex="1" parent="1">
          <mxGeometry x="590" y="230" width="160" height="80" as="geometry"/>
        </mxCell>
        <mxCell id="zN3hGCMv5IBJOMWqZXBS-106" style="edgeStyle=orthogonalEdgeStyle;rounded=0;orthogonalLoop=1;jettySize=auto;html=1;entryX=0;entryY=0.5;entryDx=0;entryDy=0;" edge="1" parent="1" source="zN3hGCMv5IBJOMWqZXBS-102" target="zN3hGCMv5IBJOMWqZXBS-97">
          <mxGeometry relative="1" as="geometry">
            <Array as="points">
              <mxPoint x="570" y="370"/>
              <mxPoint x="570" y="180"/>
            </Array>
          </mxGeometry>
        </mxCell>
        <mxCell id="zN3hGCMv5IBJOMWqZXBS-110" style="edgeStyle=orthogonalEdgeStyle;rounded=0;orthogonalLoop=1;jettySize=auto;html=1;" edge="1" parent="1" source="zN3hGCMv5IBJOMWqZXBS-102" target="zN3hGCMv5IBJOMWqZXBS-103">
          <mxGeometry relative="1" as="geometry"/>
        </mxCell>
        <mxCell id="zN3hGCMv5IBJOMWqZXBS-102" value="isnewguess()" style="rhombus;whiteSpace=wrap;html=1;" vertex="1" parent="1">
          <mxGeometry x="590" y="330" width="160" height="80" as="geometry"/>
        </mxCell>
        <mxCell id="zN3hGCMv5IBJOMWqZXBS-113" style="edgeStyle=orthogonalEdgeStyle;rounded=0;orthogonalLoop=1;jettySize=auto;html=1;" edge="1" parent="1" source="zN3hGCMv5IBJOMWqZXBS-103" target="zN3hGCMv5IBJOMWqZXBS-111">
          <mxGeometry relative="1" as="geometry"/>
        </mxCell>
        <mxCell id="zN3hGCMv5IBJOMWqZXBS-114" style="edgeStyle=orthogonalEdgeStyle;rounded=0;orthogonalLoop=1;jettySize=auto;html=1;" edge="1" parent="1" source="zN3hGCMv5IBJOMWqZXBS-103" target="zN3hGCMv5IBJOMWqZXBS-112">
          <mxGeometry relative="1" as="geometry"/>
        </mxCell>
        <mxCell id="zN3hGCMv5IBJOMWqZXBS-103" value="isguessinword()" style="rhombus;whiteSpace=wrap;html=1;" vertex="1" parent="1">
          <mxGeometry x="590" y="440" width="160" height="80" as="geometry"/>
        </mxCell>
        <mxCell id="zN3hGCMv5IBJOMWqZXBS-115" style="edgeStyle=orthogonalEdgeStyle;orthogonalLoop=1;jettySize=auto;html=1;entryX=0;entryY=0.5;entryDx=0;entryDy=0;curved=1;" edge="1" parent="1" source="zN3hGCMv5IBJOMWqZXBS-111" target="zN3hGCMv5IBJOMWqZXBS-96">
          <mxGeometry relative="1" as="geometry">
            <Array as="points">
              <mxPoint x="460" y="650"/>
              <mxPoint x="320" y="650"/>
              <mxPoint x="320" y="85"/>
            </Array>
          </mxGeometry>
        </mxCell>
        <mxCell id="zN3hGCMv5IBJOMWqZXBS-111" value="&lt;div&gt;nmiss++&lt;/div&gt;&lt;div&gt;nguess++&lt;/div&gt;&lt;div&gt;addoldguess()&lt;br&gt;&lt;/div&gt;" style="rounded=1;whiteSpace=wrap;html=1;" vertex="1" parent="1">
          <mxGeometry x="400" y="550" width="120" height="60" as="geometry"/>
        </mxCell>
        <mxCell id="zN3hGCMv5IBJOMWqZXBS-116" style="edgeStyle=orthogonalEdgeStyle;orthogonalLoop=1;jettySize=auto;html=1;entryX=0.05;entryY=0.429;entryDx=0;entryDy=0;entryPerimeter=0;curved=1;" edge="1" parent="1" source="zN3hGCMv5IBJOMWqZXBS-112" target="zN3hGCMv5IBJOMWqZXBS-96">
          <mxGeometry relative="1" as="geometry">
            <Array as="points">
              <mxPoint x="670" y="650"/>
              <mxPoint x="230" y="650"/>
              <mxPoint x="230" y="80"/>
              <mxPoint x="858" y="80"/>
            </Array>
          </mxGeometry>
        </mxCell>
        <mxCell id="zN3hGCMv5IBJOMWqZXBS-112" value="&lt;div&gt;nmiss++&lt;/div&gt;&lt;div&gt;nguess++&lt;/div&gt;&lt;div&gt;addoldguess()&lt;/div&gt;&lt;div&gt;updatewordsofar()&lt;br&gt;&lt;/div&gt;" style="rounded=1;whiteSpace=wrap;html=1;" vertex="1" parent="1">
          <mxGeometry x="610" y="550" width="120" height="60" as="geometry"/>
        </mxCell>
        <mxCell id="zN3hGCMv5IBJOMWqZXBS-123" style="edgeStyle=orthogonalEdgeStyle;curved=1;orthogonalLoop=1;jettySize=auto;html=1;" edge="1" parent="1" source="zN3hGCMv5IBJOMWqZXBS-118" target="zN3hGCMv5IBJOMWqZXBS-122">
          <mxGeometry relative="1" as="geometry"/>
        </mxCell>
        <mxCell id="zN3hGCMv5IBJOMWqZXBS-124" style="edgeStyle=orthogonalEdgeStyle;curved=1;orthogonalLoop=1;jettySize=auto;html=1;" edge="1" parent="1" source="zN3hGCMv5IBJOMWqZXBS-118" target="zN3hGCMv5IBJOMWqZXBS-121">
          <mxGeometry relative="1" as="geometry"/>
        </mxCell>
        <mxCell id="zN3hGCMv5IBJOMWqZXBS-118" value="&lt;div&gt;issolved()&lt;br&gt;&lt;/div&gt;" style="rhombus;whiteSpace=wrap;html=1;" vertex="1" parent="1">
          <mxGeometry x="995" y="170" width="160" height="70" as="geometry"/>
        </mxCell>
        <mxCell id="zN3hGCMv5IBJOMWqZXBS-120" value="" style="rounded=1;whiteSpace=wrap;html=1;" vertex="1" parent="1">
          <mxGeometry x="230" y="670" width="120" height="60" as="geometry"/>
        </mxCell>
        <mxCell id="zN3hGCMv5IBJOMWqZXBS-121" value="LOSS" style="rounded=1;whiteSpace=wrap;html=1;" vertex="1" parent="1">
          <mxGeometry x="800" y="270" width="150" height="60" as="geometry"/>
        </mxCell>
        <mxCell id="zN3hGCMv5IBJOMWqZXBS-122" value="&lt;div&gt;WIN&lt;/div&gt;" style="rounded=1;whiteSpace=wrap;html=1;" vertex="1" parent="1">
          <mxGeometry x="1000" y="270" width="150" height="60" as="geometry"/>
        </mxCell>
      </root>
    </mxGraphModel>
  </diagram>
</mxfile>
